<svg width="253" height="59" viewBox="0 0 253 59" fill="none" xmlns="http://www.w3.org/2000/svg">
<path d="M133.668 21.1116C136.198 21.1116 138.47 21.6383 140.485 22.6916C142.501 23.745 144.076 25.2898 145.212 27.3262C146.349 29.3276 146.917 31.7501 146.917 34.594V47.5499C146.917 48.3223 146.642 48.9718 146.093 49.4985C145.579 49.99 144.92 50.2357 144.114 50.2357C143.307 50.2357 142.629 49.99 142.079 49.4985C141.566 48.9718 141.309 48.3223 141.309 47.5499V34.594C141.309 31.7501 140.503 29.6085 138.891 28.1689C137.315 26.6942 135.208 25.9569 132.569 25.9569C131.03 25.9569 129.619 26.2553 128.336 26.8522C127.09 27.449 126.101 28.2566 125.368 29.2748C124.672 30.2929 124.324 31.4342 124.324 32.6981V47.5499C124.324 48.3223 124.067 48.9718 123.554 49.4985C123.041 49.99 122.363 50.2357 121.519 50.2357C120.713 50.2357 120.035 49.99 119.486 49.4985C118.973 48.9718 118.716 48.3223 118.716 47.5499V11.7371C118.716 10.9295 118.973 10.28 119.486 9.78843C120.035 9.29694 120.713 9.05115 121.519 9.05115C122.363 9.05115 123.041 9.29694 123.554 9.78843C124.067 10.28 124.324 10.9295 124.324 11.7371V24.6402C125.496 23.5167 126.889 22.6565 128.501 22.0596C130.113 21.4276 131.836 21.1116 133.668 21.1116Z" fill="white"/>
<path d="M155.932 23.9302C155.932 23.1169 156.19 22.4628 156.704 21.9678C157.255 21.4727 157.935 21.2253 158.744 21.2253C159.589 21.2253 160.269 21.4727 160.784 21.9678C161.299 22.4628 161.556 23.1169 161.556 23.9302V47.5316C161.556 48.3094 161.299 48.9635 160.784 49.4937C160.269 49.9887 159.589 50.2364 158.744 50.2364C157.935 50.2364 157.255 49.9887 156.704 49.4937C156.19 48.9635 155.932 48.3094 155.932 47.5316V23.9302ZM158.744 9.50421C159.737 9.50421 160.581 9.85781 161.28 10.5649C162.015 11.2367 162.383 12.0499 162.383 13.0046C162.383 13.9593 162.015 14.7902 161.28 15.4974C160.581 16.1692 159.737 16.505 158.744 16.505C157.752 16.505 156.888 16.1692 156.153 15.4974C155.454 14.7902 155.105 13.9593 155.105 13.0046C155.105 12.0499 155.454 11.2367 156.153 10.5649C156.888 9.85781 157.752 9.50421 158.744 9.50421Z" fill="white"/>
<path d="M183.718 44.9639C184.364 44.9639 184.904 45.2099 185.335 45.7022C185.802 46.1942 186.036 46.827 186.036 47.6002C186.036 48.3737 185.73 49.0065 185.119 49.4985C184.544 49.9905 183.79 50.2368 182.856 50.2368H181.885C180.124 50.2368 178.507 49.7973 177.034 48.9185C175.597 48.0045 174.465 46.7742 173.639 45.2275C172.813 43.681 172.399 41.9408 172.399 40.0076V26.9838H169.92C169.165 26.9838 168.554 26.7729 168.087 26.351C167.619 25.9292 167.387 25.402 167.387 24.7693C167.387 24.0662 167.619 23.5038 168.087 23.082C168.554 22.6601 169.165 22.4492 169.92 22.4492H172.399V14.8564C172.399 14.0831 172.651 13.4504 173.154 12.9582C173.656 12.4662 174.303 12.2201 175.094 12.2201C175.885 12.2201 176.531 12.4662 177.034 12.9582C177.537 13.4504 177.789 14.0831 177.789 14.8564V22.4492H182.37C183.125 22.4492 183.736 22.6601 184.203 23.082C184.67 23.5038 184.904 24.0662 184.904 24.7693C184.904 25.402 184.67 25.9292 184.203 26.351C183.736 26.7729 183.125 26.9838 182.37 26.9838H177.789V40.0076C177.789 41.4136 178.184 42.5912 178.975 43.5403C179.765 44.4895 180.736 44.9639 181.885 44.9639H183.718Z" fill="white"/>
<path d="M205.767 21.2708C210.043 21.2708 213.594 22.8364 216.421 25.9677C216.783 26.3505 216.964 26.8028 216.964 27.3248C216.964 28.0902 216.566 28.7338 215.769 29.2556C215.406 29.4991 214.99 29.6209 214.519 29.6209C213.685 29.6209 212.979 29.3078 212.399 28.6815C211.492 27.7421 210.497 27.0637 209.409 26.6462C208.358 26.1939 207.145 25.9677 205.767 25.9677C202.977 25.9677 200.713 26.8724 198.973 28.6815C197.234 30.4561 196.364 32.8218 196.364 35.7794C196.364 37.6582 196.763 39.3456 197.56 40.8418C198.394 42.3029 199.535 43.4513 200.985 44.2862C202.47 45.1211 204.155 45.5387 206.039 45.5387C208.503 45.5387 210.497 44.9298 212.018 43.7122C212.706 43.225 213.377 42.9814 214.029 42.9814C214.537 42.9814 215.007 43.1381 215.442 43.4513C216.131 44.0077 216.475 44.6343 216.475 45.3301C216.475 45.8519 216.258 46.3214 215.823 46.739C213.214 49.0704 209.952 50.2357 206.039 50.2357C203.176 50.2357 200.604 49.6095 198.321 48.3569C196.038 47.1044 194.244 45.3823 192.94 43.1904C191.672 40.9635 191.038 38.4931 191.038 35.7794C191.038 32.9958 191.654 30.5081 192.885 28.3162C194.154 26.0895 195.912 24.3673 198.158 23.1495C200.405 21.897 202.942 21.2708 205.767 21.2708Z" fill="white"/>
<path d="M239.408 21.1116C241.896 21.1116 244.132 21.6383 246.115 22.6916C248.098 23.745 249.648 25.2898 250.766 27.3262C251.884 29.3276 252.443 31.7501 252.443 34.594V47.5499C252.443 48.3223 252.173 48.9718 251.632 49.4985C251.127 49.99 250.478 50.2357 249.685 50.2357C248.891 50.2357 248.224 49.99 247.683 49.4985C247.178 48.9718 246.926 48.3223 246.926 47.5499V34.594C246.926 31.7501 246.133 29.6085 244.547 28.1689C242.996 26.6942 240.923 25.9569 238.327 25.9569C236.812 25.9569 235.424 26.2553 234.162 26.8522C232.936 27.449 231.962 28.2566 231.242 29.2748C230.557 30.2929 230.214 31.4342 230.214 32.6981V47.5499C230.214 48.3223 229.962 48.9718 229.457 49.4985C228.952 49.99 228.285 50.2357 227.455 50.2357C226.662 50.2357 225.995 49.99 225.455 49.4985C224.949 48.9718 224.697 48.3223 224.697 47.5499V11.7371C224.697 10.9295 224.949 10.28 225.455 9.78843C225.995 9.29694 226.662 9.05115 227.455 9.05115C228.285 9.05115 228.952 9.29694 229.457 9.78843C229.962 10.28 230.214 10.9295 230.214 11.7371V24.6402C231.368 23.5167 232.738 22.6565 234.324 22.0596C235.91 21.4276 237.605 21.1116 239.408 21.1116Z" fill="white"/>
<g clip-path="url(#clip0)">
<path d="M55.483 2.1843C58.4874 -0.728101 63.3583 -0.728101 66.3621 2.1843L67.0147 2.8171L51.7844 17.5825C51.777 17.5898 51.7688 17.5978 51.761 17.6049C51.5573 17.7998 51.339 17.9703 51.1088 18.1177C49.4363 19.188 47.1643 19.0096 45.692 17.5825C45.4818 17.3787 45.2977 17.159 45.1401 16.9274C44.0361 15.3064 44.2198 13.1034 45.692 11.6764L55.483 2.1843Z" fill="white"/>
<path d="M70.0604 5.76996L76.1526 11.6762L60.9222 26.4416C59.24 28.0725 56.5122 28.0725 54.83 26.4416C54.6195 26.2378 54.4356 26.018 54.2778 25.7865C53.1795 24.1735 53.356 21.9845 54.8075 20.5569L54.8107 20.5541C54.8172 20.5478 54.8236 20.5416 54.83 20.5354L70.0604 5.76996Z" fill="white"/>
<path d="M85.2905 20.5357L79.1983 14.6295L63.9679 29.3951C62.2853 31.026 62.2853 33.6703 63.9679 35.3012C64.178 35.505 64.4045 35.6834 64.6434 35.8364C66.3109 36.9037 68.5756 36.7292 70.0477 35.3131C70.0518 35.3091 70.0564 35.3052 70.0601 35.3012L85.2905 20.5357Z" fill="white"/>
<path d="M88.3374 23.4886L88.8574 23.9928C91.9352 26.9763 91.9352 31.8133 88.8574 34.7968L79.1991 44.1603C78.7533 44.593 78.2333 44.9109 77.6788 45.1138C77.5802 45.1502 77.4807 45.1827 77.3798 45.2115C75.915 45.6317 74.2659 45.2822 73.1093 44.1626L73.107 44.1603C71.4271 42.5317 71.4252 39.8921 73.1005 38.2606L88.3374 23.4886Z" fill="white"/>
<path d="M42.6465 20.5356C41.0861 19.0228 40.2492 17.0743 40.1361 15.0941L35.5387 19.551C32.174 22.8129 26.7192 22.8129 23.3542 19.551L21.3238 17.5826C16.2768 12.6896 8.09421 12.6896 3.04723 17.5826L0.00100708 20.5356L3.0348 23.4768L3.04723 23.4887L30.4616 50.0663C42.2379 61.483 61.3308 61.483 73.1074 50.0663L73.9219 49.2763C72.5075 48.9102 71.1711 48.1891 70.0613 47.1131C68.242 45.3494 67.4064 42.9927 67.555 40.6843C65.1734 40.8282 62.7424 40.0181 60.9231 38.2541C59.1033 36.4902 58.2677 34.1334 58.4163 31.8249C56.0352 31.9689 53.6041 31.1588 51.7848 29.3949C49.9651 27.6308 49.1295 25.2741 49.2781 22.9658C46.897 23.1096 44.466 22.2996 42.6465 20.5356Z" fill="white"/>
</g>
<defs>
<clipPath id="clip0">
<rect width="91.2632" height="59" fill="white"/>
</clipPath>
</defs>
</svg>
